<?xml version="1.0" encoding="UTF-8" standalone="no"?>
<svg width="173px" height="42px" viewBox="0 0 173 42" version="1.1" xmlns="http://www.w3.org/2000/svg" xmlns:xlink="http://www.w3.org/1999/xlink">
    <!-- Generator: Sketch 40.1 (33804) - http://www.bohemiancoding.com/sketch -->
    <title>tutilutilogo</title>
    <desc>Created with Sketch.</desc>
    <defs></defs>
    <g id="Page-1" stroke="none" stroke-width="1" fill="none" fill-rule="evenodd">
        <g id="tutilutilogo" transform="translate(-4.000000, -46.000000)">
            <g id="Page-1">
                <g id="Artboard">
                    <text id="TutiLuti" fill="#E32832" font-family="Satisfy" font-size="30" font-weight="normal">
                        <tspan x="65" y="70">TutiLuti</tspan>
                    </text>
                    <g id="Group" stroke="#E32832" stroke-width="3" stroke-linecap="round" stroke-linejoin="round" stroke-dasharray="1,5">
                        <path d="M19.4296743,123.826044 C19.4296743,123.826044 27.6904685,116.451979 29.93191,111.927566 C31.4039308,108.95625 33.2407856,107.630835 34.1317608,103.500923 C35.0179013,99.3934205 34.9621606,92.4732808 34.9621606,92.4732808 C34.9621606,92.4732808 34.0540649,81.2359142 35.6797523,77.816331 C36.4732481,76.1472369 38.3876818,73.7116561 40.2412332,72.7108586 C42.1217916,71.695479 43.9359934,72.1270086 43.9359934,72.1270086 C43.9359934,72.1270086 46.5163438,72.4916212 47.461671,75.9321879 C48.4069983,79.3727546 47.3197477,81.821582 46.2386216,83.4465619 C45.1574955,85.0715419 34.9621606,92.4732808 34.9621606,92.4732808 L25.9932496,97.8503592 C25.9932496,97.8503592 20.2169352,100.187817 17.5563801,100.187817 C14.895825,100.187817 13.452061,98.974101 12.7365071,97.8503592 C11.6739956,96.1817377 11.5367823,94.3890855 11.972883,92.8687449 C12.4089837,91.3484042 14.9750525,89.7531127 14.9750525,89.7531127 C14.9750525,89.7531127 16.4929575,89.0922864 17.9830133,88.8148608 C19.0477513,88.6166228 19.4634487,88.643939 22.2069448,89.1116422 C28.7898478,90.2338764 33.5205791,91.9989991 34.9621606,92.4732808 C35.5047055,92.6517785 38.9102469,97.1199437 44.2971541,98.4867171 C46.1880374,98.9664746 46.6142206,99.3842232 48.3966271,99.4729569 C55.028624,99.8031183 67.6554461,94.5599147 67.6554461,94.5599147 C67.6554461,94.5599147 71.953555,92.9943777 79.3407563,88.7017606 C86.7618688,84.3894381 93.7504694,79.0527505 97.9721243,76.1347442 C102.217387,73.2004203 111.538415,67.1060477 116.47226,63.6562451 C134.570313,51.0018724 145.763093,40.1536752 149.868689,37.9616928 C151.390827,37.1490212 154.455951,35.5847086 156.76093,35.4126284 C160.673068,35.1205644 163.814819,36.6351235 163.814819,36.6351235" id="Path-2" transform="translate(87.777753, 79.600638) rotate(34.000000) translate(-87.777753, -79.600638) "></path>
                    </g>
                </g>
            </g>
        </g>
    </g>
</svg>