<?xml version="1.0" encoding="UTF-8" standalone="no"?>
<svg width="194px" height="77px" viewBox="0 0 194 77" version="1.1" xmlns="http://www.w3.org/2000/svg" xmlns:xlink="http://www.w3.org/1999/xlink">
    <!-- Generator: Sketch 40.1 (33804) - http://www.bohemiancoding.com/sketch -->
    <title>Artboard</title>
    <desc>Created with Sketch.</desc>
    <defs></defs>
    <g id="Page-1" stroke="none" stroke-width="1" fill="none" fill-rule="evenodd">
        <g id="Artboard">
            <text id="TutiLuti" font-family="Satisfy" font-size="30" font-weight="normal" letter-spacing="-1.24999976" fill="#FFFFFF">
                <tspan x="72" y="43">TutiLuti</tspan>
            </text>
            <g id="Group" transform="translate(7.000000, -27.000000)" stroke="#FFFFFF" stroke-width="3" stroke-linecap="round" stroke-dasharray="1,5">
                <path d="M19.4296742,123.826044 C19.4296742,123.826044 27.6904684,116.451979 29.9319099,111.927566 C31.4039307,108.95625 33.2407855,107.630835 34.1317607,103.500923 C35.0179012,99.3934206 34.9621605,92.4732809 34.9621605,92.4732809 C34.9621605,92.4732809 34.0540648,81.2359143 35.6797522,77.8163311 C36.473248,76.147237 38.3876817,73.7116562 40.2412331,72.7108587 C42.1217915,71.6954791 43.9359933,72.1270087 43.9359933,72.1270087 C43.9359933,72.1270087 46.5163437,72.4916213 47.4616709,75.932188 C48.4069982,79.3727547 47.3197476,81.8215821 46.2386215,83.446562 C45.1574954,85.071542 34.9621605,92.4732809 34.9621605,92.4732809 L25.9932495,97.8503593 C25.9932495,97.8503593 20.2169351,100.187817 17.55638,100.187817 C14.8958249,100.187817 13.4520609,98.9741011 12.736507,97.8503593 C11.6739955,96.1817378 11.5367822,94.3890856 11.9728829,92.868745 C12.4089836,91.3484043 14.9750524,89.7531128 14.9750524,89.7531128 C14.9750524,89.7531128 16.4929574,89.0922865 17.9830132,88.8148609 C19.0477512,88.6166229 19.4634486,88.6439391 22.2069447,89.1116423 C28.7898477,90.2338765 33.520579,91.9989992 34.9621605,92.4732809 C35.5047054,92.6517786 38.9102468,97.1199438 44.297154,98.4867172 C46.1880373,98.9664747 46.6142205,99.3842233 48.396627,99.472957 C55.0286239,99.8031184 67.655446,94.5599148 67.655446,94.5599148 C67.655446,94.5599148 71.9535549,92.9943778 79.3407562,88.7017607 C86.7618687,84.3894382 93.7504693,79.0527506 97.9721242,76.1347443 C102.217387,73.2004204 111.538415,67.1060478 116.47226,63.6562452 C134.570313,51.0018725 145.763093,40.1536753 149.868689,37.9616929 C151.390827,37.1490213 154.455951,35.5847087 156.76093,35.4126285 C160.673068,35.1205645 163.814819,36.6351236 163.814819,36.6351236" id="Path-2" transform="translate(87.777753, 79.600638) rotate(34.000000) translate(-87.777753, -79.600638) "></path>
            </g>
        </g>
    </g>
</svg>